<svg xmlns="http://www.w3.org/2000/svg" width="24" height="24" viewBox="0 0 24 24" id="bubble"><g><path fill="#fff" d="M18.5 11.5v-10H.5v17l4-4h6v6h9l3 3v-12h-4z"></path><path fill="#cce7ff" d="M20 19h-9.5v1.5h9l3 3v-2L20 19z"></path><g fill="none" stroke="#1078ff" stroke-linecap="round" stroke-linejoin="round"><path d="M6 8l1.5 1.5h4L13 8M7.5 4.5v.878M11.5 4.5v.878"></path></g><g fill="none" stroke="#1078ff" stroke-linecap="round" stroke-linejoin="round"><path d="M8.5 14.5h-4l-4 4v-17h18v8"></path><path d="M22.5 11.5h-12v9h9l3 3v-12z"></path></g><g fill="#1078ff"><path d="M14 14.5a.2.2 0 00-.141.059l-.8.8a.2.2 0 000 .283l.8.8a.2.2 0 00.283 0l.8-.8a.2.2 0 000-.283l-.8-.8A.2.2 0 0014 14.5zM17 14.5a.2.2 0 00-.141.059l-.8.8a.2.2 0 000 .283l.8.8a.2.2 0 00.283 0l.8-.8a.2.2 0 000-.283l-.8-.8A.2.2 0 0017 14.5zM20 14.5a.2.2 0 00-.141.059l-.8.8a.2.2 0 000 .283l.8.8a.2.2 0 00.283 0l.8-.8a.2.2 0 000-.283l-.8-.8A.2.2 0 0020 14.5z"></path></g></g><path fill="none" d="M0 0h24v24H0z"></path></svg>